<svg id="Capa_1" enable-background="new 0 0 512 512" height="512" viewBox="0 0 512 512" width="512" xmlns="http://www.w3.org/2000/svg"><g><path d="m320.404 378 1.199-3c0-13.774 6.148-26.877 16.883-35.507 30.04-24.148 49.266-61.199 49.266-102.741 0-73.08-59.501-132.264-132.701-131.748-71.236.502-130.812 60.528-130.802 131.766.005 41.121 18.85 77.841 48.372 101.999 10.941 8.953 17.55 22.126 17.771 36.232l1.531 3h128.481z" fill="#ffda2d"/><path d="m387.75 236.75c0 41.54-19.22 78.59-49.26 102.74-10.74 8.63-16.89 21.74-16.89 35.51l-1.2 3h-64.4v-273c72.76 0 131.75 58.99 131.75 131.75z" fill="#ffaa17"/><path d="m210.5 461v5.5c0 25.129 20.371 45.5 45.5 45.5 25.129 0 45.5-20.371 45.5-45.5v-5.038z" fill="#004692"/><path d="m301.5 461.46v5.04c0 12.56-5.09 23.94-13.33 32.17-8.23 8.24-19.61 13.33-32.17 13.33v-50.77z" fill="#00204d"/><path d="m325.851 208.805c-5.078-6.545-14.5-7.734-21.046-2.656l-33.805 26.228v-14.377c0-12.456-14.359-19.484-24.195-11.851l-58 45c-6.545 5.078-7.735 14.501-2.656 21.046 5.085 6.555 14.51 7.728 21.046 2.656l33.805-26.228v14.377c0 12.455 14.359 19.485 24.195 11.851l58-45c6.545-5.078 7.735-14.501 2.656-21.046z" fill="#ff7900"/><path d="m323.19 229.85-58 45c-2.84 2.2-6.05 3.18-9.19 3.17v-75.04c7.73.04 15 6.16 15 15.02v14.38l33.81-26.23c6.54-5.08 15.96-3.89 21.04 2.66 5.08 6.54 3.89 15.96-2.66 21.04z" fill="#ff4800"/><path d="m256 0c-8.284 0-15 6.716-15 15v31c0 8.284 6.716 15 15 15s15-6.716 15-15v-31c0-8.284-6.716-15-15-15z" fill="#ffda2d"/><path d="m271 15v31c0 8.28-6.72 15-15 15v-61c8.28 0 15 6.72 15 15z" fill="#ffaa17"/><path d="m109.275 69.563c-5.857-5.858-15.355-5.858-21.213 0s-5.858 15.355 0 21.213l21.92 21.92c5.857 5.858 15.355 5.859 21.213 0 5.858-5.858 5.858-15.355 0-21.213z" fill="#ffda2d"/><path d="m79.5 237.5c0-8.284-6.716-15-15-15h-31c-8.284 0-15 6.716-15 15s6.716 15 15 15h31c8.284 0 15-6.716 15-15z" fill="#ffda2d"/><path d="m478.5 222.5h-31c-8.284 0-15 6.716-15 15s6.716 15 15 15h31c8.284 0 15-6.716 15-15s-6.716-15-15-15z" fill="#ffaa17"/><path d="m467.303 308.789-28.64-11.863c-7.653-3.171-16.428.464-19.599 8.118-3.17 7.654.464 16.428 8.118 19.599l28.64 11.863c7.683 3.183 16.44-.494 19.599-8.118 3.17-7.655-.464-16.429-8.118-19.599z" fill="#ffaa17"/><path d="m184.711 26.197c-3.171-7.653-11.945-11.287-19.599-8.118-7.654 3.17-11.288 11.945-8.118 19.599l11.863 28.64c3.166 7.642 11.934 11.293 19.599 8.118 7.654-3.17 11.288-11.945 8.118-19.599z" fill="#ffda2d"/><path d="m84.817 150.358-28.64-11.863c-7.654-3.171-16.428.464-19.599 8.118-3.17 7.654.464 16.428 8.118 19.599l28.64 11.863c7.683 3.183 16.44-.494 19.599-8.118 3.17-7.654-.464-16.429-8.118-19.599z" fill="#ffda2d"/><path d="m423.938 69.563c-5.857-5.858-15.355-5.858-21.213 0l-21.92 21.92c-5.858 5.858-5.858 15.355 0 21.213 5.857 5.858 15.355 5.859 21.213 0l21.92-21.92c5.857-5.859 5.857-15.356 0-21.213z" fill="#ffaa17"/><path d="m346.887 18.079c-7.654-3.169-16.428.464-19.599 8.118l-11.863 28.64c-3.17 7.654.464 16.428 8.118 19.599 1.877.777 3.821 1.146 5.734 1.146 5.886 0 11.471-3.487 13.864-9.264l11.863-28.64c3.171-7.655-.463-16.429-8.117-19.599z" fill="#ffaa17"/><path d="m73.337 296.926-28.64 11.863c-7.654 3.17-11.288 11.945-8.118 19.599 3.165 7.641 11.934 11.294 19.599 8.118l28.64-11.863c7.654-3.17 11.288-11.945 8.118-19.599-3.171-7.654-11.944-11.29-19.599-8.118z" fill="#ffda2d"/><path d="m419.064 169.957c3.165 7.641 11.934 11.294 19.599 8.118l28.64-11.863c7.654-3.17 11.288-11.945 8.118-19.599s-11.944-11.289-19.599-8.118l-28.64 11.863c-7.653 3.17-11.287 11.945-8.118 19.599z" fill="#ffaa17"/><path d="m321.602 375h-131.21v30l65.608 10 65.602-10z" fill="#edf5ff"/><path d="m321.6 375v30l-65.6 10v-40z" fill="#cee8ff"/><path d="m190.392 405v46c0 8.284 6.716 15 15 15h101.211c8.284 0 15-6.716 15-15v-46z" fill="#cee8ff"/><path d="m321.6 405v46c0 8.28-6.71 15-15 15h-50.6v-61z" fill="#aedaff"/></g></svg>