<?xml version="1.0" encoding="utf-8"?>
<!-- Generator: Adobe Illustrator 25.4.1, SVG Export Plug-In . SVG Version: 6.00 Build 0)  -->
<svg version="1.1" id="Layer_1" xmlns="http://www.w3.org/2000/svg" xmlns:xlink="http://www.w3.org/1999/xlink" x="0px" y="0px"
	 viewBox="0 0 1236.83 1208.46" style="enable-background:new 0 0 1236.83 1208.46;" xml:space="preserve">
<style type="text/css">
	.st0{fill:#5FD0DF;}
	.st1{fill:#00465A;}
</style>
<g>
	<polygon class="st0" points="999.42,615.62 946.85,615.62 1006.52,530.28 1059.1,530.28 	"/>
	<path class="st1" d="M655.57,527.12c-40.85,0-76.26,31.77-76.26,70.68v134.87h38.13v-75.87c12.26,8.43,25.87,11.67,40.17,11.67
		c40.17,0,74.21-31.77,74.21-70.68C731.82,555.65,699.82,527.12,655.57,527.12z M655.57,634.76c-21.79,0-38.13-16.21-38.13-36.96
		c0-21.4,16.34-36.96,38.13-36.96c22.47,0,38.13,15.56,38.13,36.96C693.69,618.55,678.03,634.76,655.57,634.76z"/>
	<path class="st1" d="M817.61,527.12c-40.85,0-76.26,31.77-76.26,70.68c0,42.15,29.96,70.68,72.85,70.68
		c17.7,0,33.36-5.84,42.21-14.91v13.54h37.45V597.8C893.87,555.65,861.87,527.12,817.61,527.12z M817.61,634.76
		c-21.79,0-38.13-16.21-38.13-36.96c0-21.4,16.34-36.96,38.13-36.96c22.47,0,38.13,15.56,38.13,36.96
		C855.74,618.55,840.08,634.76,817.61,634.76z"/>
	<rect x="355.99" y="530.28" class="st1" width="38.13" height="137.33"/>
	<path class="st1" d="M270.88,527.12c-17.7,0-33.36,5.84-41.53,14.91v-69.5h-38.13V597.8c0,42.15,32,70.68,76.26,70.68
		c40.85,0,76.26-31.77,76.26-70.68C343.73,555.65,313.78,527.12,270.88,527.12z M267.48,634.76c-21.79,0-38.13-16.21-38.13-36.96
		c0-21.4,16.34-36.96,38.13-36.96c22.47,0,38.13,15.56,38.13,36.96C305.61,618.55,289.95,634.76,267.48,634.76z"/>
	<path class="st1" d="M889.04,530.28l56.56,129.16l-51.06,73.24c-0.42-0.46,46.32,0,46.32,0l51.06-73.24l-56.56-129.16H889.04z"/>
	<path class="st1" d="M486.71,527.12c-40.85,0-76.26,31.77-76.26,70.68c0,42.15,29.96,70.68,72.85,70.68
		c17.7,0,34.04-5.84,42.21-14.91v11.67c0,22.05-15.66,38.91-38.81,38.91c-22.73,0-38.23-15.01-38.78-36.42h-36.09
		c0.55,42.09,30.35,68.2,74.87,68.2c40.85,0,76.26-28.53,76.26-70.68V597.8C562.97,555.65,530.97,527.12,486.71,527.12z
		 M486.71,634.76c-21.79,0-38.13-16.21-38.13-36.96c0-21.4,16.34-36.96,38.13-36.96c22.47,0,38.13,15.56,38.13,36.96
		C524.84,618.55,509.18,634.76,486.71,634.76z"/>
</g>
</svg>
