<svg xmlns="http://www.w3.org/2000/svg" xmlns:xlink="http://www.w3.org/1999/xlink" width="746.633" height="491.9" viewBox="0 0 746.633 491.9">
  <defs>
    <clipPath id="clip-stacked-logo-red">
      <rect width="746.633" height="491.9"/>
    </clipPath>
  </defs>
  <g id="stacked-logo-red" clip-path="url(#clip-stacked-logo-red)">
    <g id="Layer_2_1_" transform="translate(0 0.001)">
      <g id="Layer_1-2">
        <path id="Path_42" data-name="Path 42" d="M746.5,173.5V347h-192q-149.1,0-154.2-135.7c-.2-9.3-.4-21.8-.4-37.7s.2-28.6.4-38.2Q402.4,70,443.1,35C470.2,11.7,508.2-.1,557,0H699.7V74.3H559.5c-20.8,0-36.5,5.1-47.3,15.1s-16.4,25.7-17.1,46.9c-.7,9.1-1,21.4-1,36.6s.3,27.6,1,37.2c.7,21.8,5.9,37.7,15.9,47.5s25.2,14.9,46.1,14.9H653V173.3h93.5Z" fill="#e93d45"/>
        <path id="Path_43" data-name="Path 43" d="M347.1,173.5c0,15.9-.2,28.4-.5,37.7q-4.95,135.75-154.2,135.7H47.2V272.7H190c20.8,0,36.1-5,46.1-14.9q14.85-14.85,15.9-47.5c.6-9.6,1-22,1-37.2s-.4-27.4-1-36.6c-.7-21.2-6.5-36.8-17.1-46.9-10.7-10.1-26.6-15.1-47.3-15.1H93.8v99.2H.5V0H190q73.35,0,113.9,34.9c27.2,23.3,41.3,56.8,42.7,100.5C346.9,144.9,347.1,157.6,347.1,173.5Z" fill="#e93d45"/>
        <path id="Path_44" data-name="Path 44" d="M1,489.9a3.212,3.212,0,0,1-1-2.2V405.3A3.168,3.168,0,0,1,.9,403a3.255,3.255,0,0,1,2.3-1H36.6c12.6,0,22.3,3,29.2,9s10.6,14.5,10.9,25.7c0,2.5.1,5.7.1,9.8s0,7.3-.1,9.7Q75.35,491,37.2,491H3.2A3.333,3.333,0,0,1,1,489.9Zm35.6-18.1c5.3,0,9.3-1.3,11.8-3.8s3.9-6.6,4.1-12.2c.2-2.4.3-5.6.3-9.5s-.1-7-.3-9.4c-.2-5.4-1.6-9.4-4.4-12S41.2,421,36,421H24v50.8Z" fill="#e93d45"/>
        <path id="Path_45" data-name="Path 45" d="M97.7,489.9a2.737,2.737,0,0,1-.9-2.2V405.3a3.168,3.168,0,0,1,.9-2.3,3.255,3.255,0,0,1,2.3-1h60a3.244,3.244,0,0,1,3.3,3.2v12.7a2.9,2.9,0,0,1-1,2.3,3.337,3.337,0,0,1-2.3.9H119.9v16.1h37.3a3.244,3.244,0,0,1,3.3,3.2V452a3.244,3.244,0,0,1-3.2,3.3H119.9v16.5H161a3.244,3.244,0,0,1,3.3,3.2v12.7a2.9,2.9,0,0,1-1,2.3,3.337,3.337,0,0,1-2.3.9H100A3.255,3.255,0,0,1,97.7,489.9Z" fill="#e93d45"/>
        <path id="Path_46" data-name="Path 46" d="M185.2,489.9a3.212,3.212,0,0,1-1-2.2V405.3a3.168,3.168,0,0,1,.9-2.3,3.255,3.255,0,0,1,2.3-1h60a3.244,3.244,0,0,1,3.3,3.2v12.7a2.9,2.9,0,0,1-1,2.3,3.337,3.337,0,0,1-2.3.9h-40v16.1h37.3a3.244,3.244,0,0,1,3.3,3.2V452a3.244,3.244,0,0,1-3.2,3.3H207.4v16.5h41.1a3.244,3.244,0,0,1,3.3,3.2v12.7a3.168,3.168,0,0,1-.9,2.3,3.406,3.406,0,0,1-2.4.9h-61A2.927,2.927,0,0,1,185.2,489.9Z" fill="#e93d45"/>
        <path id="Path_47" data-name="Path 47" d="M272.5,489.9a3.212,3.212,0,0,1-1-2.2V405.3a3.168,3.168,0,0,1,.9-2.3,3.255,3.255,0,0,1,2.3-1h36c11,0,19.6,2.5,25.9,7.5s9.4,12.3,9.4,22-3.1,16.9-9.4,21.7-14.9,7.2-25.9,7.2H296.2v27.4a3.1,3.1,0,0,1-.9,2.2,3.255,3.255,0,0,1-2.3,1H274.7A3.858,3.858,0,0,1,272.5,489.9ZM310,442.1a11.638,11.638,0,0,0,8.2-2.7,10.534,10.534,0,0,0,3-8.1,11.612,11.612,0,0,0-2.7-8,10.479,10.479,0,0,0-8.4-3H295.9v21.8H310Z" fill="#e93d45"/>
        <path id="Path_48" data-name="Path 48" d="M373.3,483.2c-6.9-6-10.6-14.5-11-25.6-.1-2.4-.1-6.2-.1-11.6,0-5.3,0-9.2.1-11.7.3-10.7,4-18.9,11.1-24.8s16.7-8.8,28.8-8.8a53.667,53.667,0,0,1,21.3,3.9,33.059,33.059,0,0,1,13.8,10.1,21.819,21.819,0,0,1,5,12.6,2.862,2.862,0,0,1-2.8,2.8H419.8a4.477,4.477,0,0,1-2-.4,5.346,5.346,0,0,1-1.3-1.3,14.339,14.339,0,0,0-14.4-8.7c-9.8,0-14.9,5.1-15.2,15.2-.1,2.4-.1,6-.1,10.9s0,8.6.1,11c.3,10.8,5.5,16.1,15.4,16.1a17.618,17.618,0,0,0,11.7-3.7c2.9-2.4,4.3-6.2,4.3-11.2v-2.3H407a3.227,3.227,0,0,1-3.3-3.1V442.5a3.227,3.227,0,0,1,3.1-3.3h32.5a3.244,3.244,0,0,1,3.3,3.2v14.8a33.8,33.8,0,0,1-5,18.6,31.934,31.934,0,0,1-14.2,12,50.262,50.262,0,0,1-21.3,4.1C389.8,492.2,380.2,489.2,373.3,483.2Z" fill="#e93d45"/>
        <path id="Path_49" data-name="Path 49" d="M463.5,489.9a2.737,2.737,0,0,1-.9-2.2V405.3a3.168,3.168,0,0,1,.9-2.3,3.255,3.255,0,0,1,2.3-1h34.9c11.2,0,19.9,2.5,26.2,7.6s9.5,12.2,9.5,21.5a26.866,26.866,0,0,1-4.1,15.1,26.582,26.582,0,0,1-11.4,9.6l17.1,31a3.255,3.255,0,0,1,.4,1.4,2.5,2.5,0,0,1-.8,1.8,2.364,2.364,0,0,1-1.9.8H517.9a5.2,5.2,0,0,1-5.1-3.4l-14-27.6H486.6v27.8a2.9,2.9,0,0,1-1,2.3,3.337,3.337,0,0,1-2.3.9H465.8A2.585,2.585,0,0,1,463.5,489.9Zm37-48.7a11.887,11.887,0,0,0,8.3-2.7,9.65,9.65,0,0,0,2.8-7.6,11,11,0,0,0-2.8-7.9,11.176,11.176,0,0,0-8.3-2.9H486.6V441Z" fill="#e93d45"/>
        <path id="Path_50" data-name="Path 50" d="M553.3,490a2.5,2.5,0,0,1-.8-1.8,3.751,3.751,0,0,1,.1-1.1l29.6-81.4a5.051,5.051,0,0,1,5.1-3.7h19.8a4.873,4.873,0,0,1,5.1,3.7l29.6,81.4a4.486,4.486,0,0,1,.1,1.1,2.342,2.342,0,0,1-.8,1.8,2.5,2.5,0,0,1-1.8.8H622.8a4.327,4.327,0,0,1-4.3-2.8l-4.6-12.3H580.4L575.8,488a4.327,4.327,0,0,1-4.3,2.8H555A2.136,2.136,0,0,1,553.3,490Zm32.5-33.3h22.6l-11.3-32.4Z" fill="#e93d45"/>
        <path id="Path_51" data-name="Path 51" d="M659.1,490a3.255,3.255,0,0,1-1-2.3V405.3a3.244,3.244,0,0,1,3.2-3.3h14.5a4.723,4.723,0,0,1,4.6,2.8l21.9,39.1,22-39.1a4.723,4.723,0,0,1,4.6-2.8h14.4a3.244,3.244,0,0,1,3.3,3.2v82.5a3.168,3.168,0,0,1-.9,2.3,3.337,3.337,0,0,1-2.3.9H727.3a3.289,3.289,0,0,1-3.2-3.2V441.5l-13.7,25.1a4.822,4.822,0,0,1-4.5,2.9H699a5.417,5.417,0,0,1-4.5-2.9l-13.6-25.1v46.2a2.9,2.9,0,0,1-1,2.3,3.337,3.337,0,0,1-2.3.9h-16A3.841,3.841,0,0,1,659.1,490Z" fill="#e93d45"/>
      </g>
    </g>
  </g>
</svg>
