<?xml version="1.0" encoding="UTF-8"?>
<svg width="500mm" height="200mm" enable-background="new" version="1.1" viewBox="0 0 500 200" xmlns="http://www.w3.org/2000/svg" xmlns:cc="http://creativecommons.org/ns#" xmlns:dc="http://purl.org/dc/elements/1.1/" xmlns:rdf="http://www.w3.org/1999/02/22-rdf-syntax-ns#">
<defs>
<filter id="a" color-interpolation-filters="sRGB">
<feBlend in2="BackgroundImage" mode="overlay"/>
</filter>
</defs>
<metadata>
<rdf:RDF>
<cc:Work rdf:about="">
<dc:format>image/svg+xml</dc:format>
<dc:type rdf:resource="http://purl.org/dc/dcmitype/StillImage"/>
<dc:title/>
</cc:Work>
</rdf:RDF>
</metadata>
<g transform="translate(0,-97)">
<path d="m43.132 197.44 2.7e-4 21.508 4.9998-2.8866 1.89e-4 -21.508zm62.449-14.546-2e-5 21.446 5.0003-2.8869v-21.446z" color="#000000" color-rendering="auto" dominant-baseline="auto" enable-background="accumulate" image-rendering="auto" shape-rendering="auto" solid-color="#000000" style="font-feature-settings:normal;font-variant-alternates:normal;font-variant-caps:normal;font-variant-ligatures:normal;font-variant-numeric:normal;font-variant-position:normal;isolation:auto;mix-blend-mode:normal;shape-padding:0;text-decoration-color:#000000;text-decoration-line:none;text-decoration-style:solid;text-indent:0;text-orientation:mixed;text-transform:none;white-space:normal"/>
<path transform="rotate(-30 389.05 253.17)" d="m126.5 50.845c0-1.9028 7.866-15.527 9.5138-16.478s17.38-0.95138 19.028 1e-6 9.5138 14.576 9.5138 16.478c0 1.9028-7.866 15.527-9.5138 16.478-1.6478 0.95138-17.38 0.95138-19.028-1e-6s-9.5138-14.576-9.5138-16.478z" fill="none" stroke="#000" stroke-linecap="square" stroke-linejoin="round" stroke-width="4.3943"/>
</g>
<g transform="translate(0,-97)" display="none">
<path d="m43.132 218.95c6.1922 3.5721 12.382 7.1481 18.573 10.723l4.9994-2.8864-18.573-10.723zm43.822-46.809 18.627 10.754 5.0002-2.8869-18.627-10.754z" color="#000000" color-rendering="auto" display="inline" dominant-baseline="auto" enable-background="accumulate" image-rendering="auto" opacity=".15" shape-rendering="auto" solid-color="#000000" style="font-feature-settings:normal;font-variant-alternates:normal;font-variant-caps:normal;font-variant-ligatures:normal;font-variant-numeric:normal;font-variant-position:normal;isolation:auto;mix-blend-mode:normal;shape-padding:0;text-decoration-color:#000000;text-decoration-line:none;text-decoration-style:solid;text-indent:0;text-orientation:mixed;text-transform:none;white-space:normal"/>
</g>
<g transform="translate(0,-97)" display="none">
<path d="m43.132 218.95c6.1922 3.5721 12.382 7.1481 18.573 10.723l4.9994-2.8864-18.573-10.723zm43.822-46.809 18.627 10.754 5.0002-2.8869-18.627-10.754z" color="#000000" color-rendering="auto" display="inline" dominant-baseline="auto" enable-background="accumulate" fill="none" image-rendering="auto" shape-rendering="auto" solid-color="#000000" stroke="#000" stroke-width=".1" style="font-feature-settings:normal;font-variant-alternates:normal;font-variant-caps:normal;font-variant-ligatures:normal;font-variant-numeric:normal;font-variant-position:normal;isolation:auto;mix-blend-mode:normal;shape-padding:0;text-decoration-color:#000000;text-decoration-line:none;text-decoration-style:solid;text-indent:0;text-orientation:mixed;text-transform:none;white-space:normal"/>
</g>
<g>
<text x="137.05339" y="112.49296" fill="#000000" font-family="sans-serif" font-size="10.583px" letter-spacing="0px" stroke-width=".26458" word-spacing="0px" style="line-height:1.25" xml:space="preserve"><tspan x="137.05339" y="112.49296" font-size="33.867px" stroke-width=".26458">Hack <tspan font-family="'Px Grotesk'" font-weight="bold">Cambridge</tspan> <tspan font-family="'Px Grotesk'" font-weight="800">101</tspan></tspan></text>
</g>
<g display="none" filter="url(#a)">
<g>
<path transform="rotate(-90 122.43 129.45)" d="m181.05 139.31h-63.83l31.915-55.278z" fill="#ffecc8" opacity=".116"/>
<path transform="rotate(90 103.72 57.325)" d="m181.05 139.31h-63.83l31.915-55.278z" fill="#c8ffff" opacity=".116"/>
<path transform="rotate(-30 147.98 227.98)" d="m181.05 139.31h-63.83l31.915-55.278z" fill="#ffffc8" opacity=".116"/>
<path transform="rotate(30 78.17 -41.201)" d="m181.05 139.31h-63.83l31.915-55.278z" fill="#c8ffc8" opacity=".116"/>
<path transform="rotate(210 -88.345 -61.965)" d="m-281.99-66.648h-63.83l31.915-55.278z" fill="#ffc8c8" opacity=".116"/>
<path transform="rotate(-90 78.829 141.13)" d="m181.05 139.31h-63.83l31.915-55.278z" fill="#c8c8ff" opacity=".116"/>
</g>
<path d="m43.132 100.44 2.7e-4 21.508 4.9998-2.8866 1.89e-4 -21.508zm62.449-14.546-2e-5 21.446 5.0003-2.8869v-21.446z" color="#000000" color-rendering="auto" display="inline" dominant-baseline="auto" enable-background="accumulate" fill="#fff" image-rendering="auto" shape-rendering="auto" solid-color="#000000" style="font-feature-settings:normal;font-variant-alternates:normal;font-variant-caps:normal;font-variant-ligatures:normal;font-variant-numeric:normal;font-variant-position:normal;isolation:auto;mix-blend-mode:normal;shape-padding:0;text-decoration-color:#000000;text-decoration-line:none;text-decoration-style:solid;text-indent:0;text-orientation:mixed;text-transform:none;white-space:normal"/>
<path transform="rotate(-30 208.05 204.67)" d="m126.5 50.845c0-1.9028 7.866-15.527 9.5138-16.478s17.38-0.95138 19.028 1e-6 9.5138 14.576 9.5138 16.478c0 1.9028-7.866 15.527-9.5138 16.478-1.6478 0.95138-17.38 0.95138-19.028-1e-6s-9.5138-14.576-9.5138-16.478z" display="inline" fill="none" stroke="#000" stroke-linecap="square" stroke-linejoin="round" stroke-width="4.3943"/>
</g>
</svg>
